<?xml version="1.0" standalone="no"?>
<!DOCTYPE svg PUBLIC "-//W3C//DTD SVG 20010904//EN"
 "http://www.w3.org/TR/2001/REC-SVG-20010904/DTD/svg10.dtd">
<svg version="1.0" xmlns="http://www.w3.org/2000/svg"
 width="260.000000pt" height="260.000000pt" viewBox="0 0 260.000000 260.000000"
 preserveAspectRatio="xMidYMid meet">
<metadata>
Created by potrace 1.14, written by Peter Selinger 2001-2017
</metadata>
<g transform="translate(0.000000,260.000000) scale(0.100000,-0.100000)"
fill="#000000" stroke="none">
<path d="M1302 1953 l-2 -653 -647 -3 -648 -2 647 -3 648 -2 3 -647 2 -648 3
647 2 648 648 3 647 2 -647 3 -648 2 -3 653 -2 652 -3 -652z"/>
<path d="M567 2455 c-102 -26 -186 -74 -262 -150 -164 -162 -199 -374 -98
-583 38 -80 149 -188 237 -230 226 -110 477 -70 652 103 208 205 204 519 -9
723 -31 28 -58 52 -61 52 -3 0 -27 13 -53 28 -26 15 -73 36 -103 46 -75 24
-229 30 -303 11z"/>
<path d="M1818 1155 c-200 -50 -368 -217 -407 -402 -15 -74 -7 -197 18 -267
51 -142 157 -250 309 -314 68 -29 117 -37 227 -37 150 1 271 52 381 160 206
203 206 504 -1 710 -79 79 -149 118 -270 152 -48 13 -202 12 -257 -2z"/>
<path d="M450 640 l0 -520 255 0 255 0 0 520 0 520 -255 0 -255 0 0 -520z
m500 0 l0 -510 -245 0 -245 0 0 510 0 510 245 0 245 0 0 -510z"/>
</g>
</svg>
