<?xml version="1.0" standalone="no"?>
<!DOCTYPE svg PUBLIC "-//W3C//DTD SVG 20010904//EN"
 "http://www.w3.org/TR/2001/REC-SVG-20010904/DTD/svg10.dtd">
<svg version="1.0" xmlns="http://www.w3.org/2000/svg"
 width="256.000000pt" height="256.000000pt" viewBox="0 0 256.000000 256.000000"
 preserveAspectRatio="xMidYMid meet">

<g transform="translate(0.000000,256.000000) scale(0.100000,-0.100000)"
fill="#000000" stroke="none">
<path d="M573 2415 c-216 -47 -380 -214 -415 -422 -43 -256 144 -510 418 -568
187 -40 364 13 500 149 203 203 203 489 0 692 -136 136 -317 189 -503 149z"/>
<path d="M1800 1134 c-103 -22 -186 -68 -266 -148 -84 -84 -128 -167 -146
-273 -43 -255 145 -511 417 -568 88 -19 142 -19 230 0 273 58 463 318 416 572
-19 106 -64 187 -145 269 -137 137 -317 189 -506 148z"/>
<path d="M440 630 l0 -510 255 0 255 0 0 510 0 510 -255 0 -255 0 0 -510z
m500 0 l0 -500 -245 0 -245 0 0 500 0 500 245 0 245 0 0 -500z"/>
</g>
</svg>
