<?xml version="1.0" encoding="utf-8"?>
<svg id="master-artboard" xmlns="http://www.w3.org/2000/svg" viewBox="0 0 149.0620574951172 261.41766357421875" width="149.0620574951172px" height="261.41766357421875px"><rect id="ee-background" x="0" y="0" width="149.0620574951172" height="261.41766357421875" style="fill: white; fill-opacity: 0; pointer-events: none;"/><g transform="matrix(-0.4998001158237457, 0, 0, -0.4998001158237457, 652.3715171813965, 331.4892578125)"><path d="M 1302.452392578125 371.76068115234375 C 1290.77700250213 340.0906038796023 1376.2053270186684 582.956621644356 1388.9000244140625 616.5 C 1381.8096070810227 620.3476448816557 1105.4466305013027 387.7241934500887 1139.800048828125 375.70001220703125 C 1106.0362378663717 354.8254233226614 1366.6620255239284 137.4323337530294 1372.0999755859375 135 L 1370.300048828125 133.1999969482422 L 1354.699951171875 118.0999984741211 L 1340.0999755859375 133.1999969482422 C 1374.6628368688112 143.3654032158839 1186.8522392835064 245.47776111124173 1128.339599609375 377.3622131347656 L 1357.0999755859375 618.2999877929688 L 1371.5999755859375 603.2999877929688 L 1302.452392578125 371.76068115234375 Z" class="st5" style="fill: rgb(51, 51, 51); opacity: 1;" transform="matrix(1, 0, 0, 1, -92.66119384765625, 26.82297706604004)"/></g><g transform="matrix(-0.4998001158237457, 0, 0, 0.4998001158237457, 656.3295249938965, -67.3337173461914)"><path d="M 1307.3856201171875 375.162841796875 L 1388.9000244140625 616.5 L 1139.800048828125 375.70001220703125 C 1146.1856371504555 382.7240982683875 1356.089963795561 141.1679209502879 1372.0999755859375 135 L 1370.300048828125 133.1999969482422 L 1354.699951171875 118.0999984741211 L 1340.0999755859375 133.1999969482422 C 1339.594029150203 135.7298591267388 1104.3130703448326 383.6351905141499 1105.9000244140625 375.70001220703125 C 1112.9697586645216 377.1139682505384 1357.8470245844037 643.4365021823711 1357.0999755859375 618.2999877929688 L 1371.5999755859375 603.2999877929688 C 1375.0654081266089 611.4793023223928 1308.0223302361742 378.5939081564639 1307.3856201171875 375.162841796875 Z" class="st5" style="fill: rgb(51, 51, 51); opacity: 1;" transform="matrix(1.0000000000000002, 0, 0, 1.0000000000000002, -90.39859008789108, 24.56037215986717)"/></g><g transform="matrix(0.06500381231307983, 0.068974070250988, -0.068974070250988, 0.06500381231307983, 20.281147003173828, 0.6904373168945312)"><g id="Layer_2_4_" transform="matrix(1, 0, 0, 1, 0, 0)">
	<g id="Layer_1-2_4_">
		<path class="st0" d="M58,49h100v100H58V49z" style="fill: rgb(51, 51, 51);"/>
	</g>
</g></g><g transform="matrix(0.08176024258136749, -0.08096732944250107, 0.08096732944250107, 0.08176024258136749, 3.0607643127441406, 250.0932159423828)"><g id="g-1" transform="matrix(1, 0, 0, 1, 0, 0)">
	<g id="g-2">
		<path class="st0" d="M58,49h100v100H58V49z" style="fill: rgb(51, 51, 51);"/>
	</g>
</g></g><path d="M 331.5653991699219 176.79086303710938 L 368.11895751953125 136.9142303466797" style="fill: rgb(51, 51, 51); fill-opacity: 1; stroke: rgb(0, 0, 0); stroke-opacity: 1; stroke-width: 0; paint-order: fill;" transform="matrix(1, 0, 0, 1, -190.03358840942383, -131.77511596679688)"/></svg>